%TF.GenerationSoftware,KiCad,Pcbnew,(5.99.0-2809-gaceed2b0a4)*%
%TF.CreationDate,2020-08-26T23:20:53-04:00*%
%TF.ProjectId,athene-pcb,61746865-6e65-42d7-9063-622e6b696361,rev?*%
%TF.SameCoordinates,Original*%
%TF.FileFunction,Copper,L1,Top*%
%TF.FilePolarity,Positive*%
%FSLAX46Y46*%
G04 Gerber Fmt 4.6, Leading zero omitted, Abs format (unit mm)*
G04 Created by KiCad (PCBNEW (5.99.0-2809-gaceed2b0a4)) date 2020-08-26 23:20:53*
%MOMM*%
%LPD*%
G01*
G04 APERTURE LIST*
%TA.AperFunction,ComponentPad*%
%ADD10C,6.100000*%
%TD*%
%TA.AperFunction,ComponentPad*%
%ADD11C,3.300000*%
%TD*%
%TA.AperFunction,ComponentPad*%
%ADD12O,1.000000X1.600000*%
%TD*%
%TA.AperFunction,ComponentPad*%
%ADD13O,1.000000X2.100000*%
%TD*%
%TA.AperFunction,ComponentPad*%
%ADD14C,1.700000*%
%TD*%
%TA.AperFunction,ComponentPad*%
%ADD15R,1.700000X1.700000*%
%TD*%
%TA.AperFunction,ViaPad*%
%ADD16C,0.600000*%
%TD*%
%TA.AperFunction,Conductor*%
%ADD17C,0.250000*%
%TD*%
%TA.AperFunction,Conductor*%
%ADD18C,0.500000*%
%TD*%
G04 APERTURE END LIST*
D10*
%TO.P,Poker_oval_hole,*%
%TO.N,GND*%
X203200000Y-101600000D03*
%TD*%
D11*
%TO.P,HOLE5,*%
%TO.N,GND*%
X282575000Y-101600000D03*
%TD*%
%TO.P,HOLE5,*%
%TO.N,GND*%
X144462500Y-63500000D03*
%TD*%
D10*
%TO.P,Poker_oval_hole,*%
%TO.N,GND*%
X40481250Y-101600000D03*
%TD*%
%TO.P,Poker_oval_hole,*%
%TO.N,GND*%
X40481250Y-44450000D03*
%TD*%
%TO.P,Poker_oval_hole,*%
%TO.N,GND*%
X276225000Y-44454000D03*
%TD*%
D12*
%TO.P,J1,13,SHIELD*%
%TO.N,Net-(C8-Pad1)*%
X30605000Y-18412500D03*
D13*
X39245000Y-22592500D03*
X30605000Y-22592500D03*
D12*
X39245000Y-18412500D03*
%TD*%
D14*
%TO.P,J2,1,MISO*%
%TO.N,MISO*%
X92329000Y-96139000D03*
%TO.P,J2,2,VCC*%
%TO.N,VCC*%
X89789000Y-96139000D03*
%TO.P,J2,3,SCK*%
%TO.N,SCLK*%
X92329000Y-98679000D03*
%TO.P,J2,4,MOSI*%
%TO.N,MOSI*%
X89789000Y-98679000D03*
%TO.P,J2,5,~RST*%
%TO.N,RST*%
X92329000Y-101219000D03*
D15*
%TO.P,J2,6,GND*%
%TO.N,GND*%
X89789000Y-101219000D03*
%TD*%
D16*
%TO.N,GND*%
X55626000Y-88646000D03*
X146812000Y-104902000D03*
X54825997Y-84963000D03*
X32893000Y-25908000D03*
X37211000Y-25908000D03*
X142875000Y-105737500D03*
%TO.N,ROW0*%
X37465000Y-32385000D03*
X115697000Y-87249000D03*
X94107000Y-29718000D03*
X31623000Y-32385000D03*
%TO.N,ROW1*%
X116713000Y-87249000D03*
X103886000Y-49022000D03*
%TO.N,ROW2*%
X117602000Y-87249000D03*
X108585000Y-67945000D03*
%TO.N,ROW4*%
X138049000Y-96139000D03*
X85090000Y-103124000D03*
X123063000Y-104521000D03*
%TO.N,VCC*%
X115856250Y-90391750D03*
X112014000Y-99837500D03*
X80264000Y-46863000D03*
X101839701Y-104078339D03*
X143192500Y-107061000D03*
X125222000Y-91567000D03*
X95758000Y-104013000D03*
X114681000Y-108077000D03*
X118110000Y-104521000D03*
X125070750Y-103607750D03*
X128778000Y-102235000D03*
X92964000Y-107315000D03*
%TO.N,COL0*%
X36830000Y-41529000D03*
X34417000Y-94615000D03*
X30400000Y-30100000D03*
X43942000Y-75311000D03*
X39116000Y-56261000D03*
X44958000Y-88011000D03*
%TO.N,COL1*%
X74930000Y-75311000D03*
X60579000Y-37338000D03*
X58293000Y-94615000D03*
X65278000Y-56261000D03*
X49276000Y-32131000D03*
X76200000Y-87376000D03*
%TO.N,COL2*%
X84322500Y-56261000D03*
X93853000Y-75438000D03*
X82042000Y-94615000D03*
X94615000Y-86741000D03*
X79502000Y-37338000D03*
X70104000Y-22352000D03*
%TO.N,COL3*%
X112014000Y-86741000D03*
X113030000Y-75311000D03*
X103378000Y-56261000D03*
X98614000Y-37338000D03*
X89154000Y-22352000D03*
%TO.N,COL4*%
X122428000Y-56261000D03*
X131953000Y-75311000D03*
X108204000Y-22352000D03*
X117602000Y-37338000D03*
X130302000Y-86487000D03*
%TO.N,COL5*%
X141478000Y-56261000D03*
X151130000Y-75311000D03*
X149479000Y-86487000D03*
X153543000Y-94615000D03*
X127254000Y-22352000D03*
X136652000Y-37338000D03*
%TO.N,COL6*%
X160528000Y-56261000D03*
X146304000Y-22352000D03*
X168529000Y-86741000D03*
X155829000Y-37338000D03*
X170053000Y-75311000D03*
%TO.N,COL7*%
X174879000Y-37338000D03*
X165354000Y-22352000D03*
X187452000Y-86995000D03*
X179578000Y-56261000D03*
X189103000Y-75311000D03*
%TO.N,COL8*%
X198755000Y-56261000D03*
X184384000Y-22400000D03*
X206629000Y-87249000D03*
X193802000Y-37338000D03*
X208280000Y-75311000D03*
%TO.N,COL9*%
X217678000Y-56261000D03*
X212852000Y-37338000D03*
X227203000Y-94615000D03*
X203484000Y-22352000D03*
X227203000Y-75311000D03*
X226187000Y-87249000D03*
%TO.N,COL10*%
X255778000Y-94615000D03*
X232029000Y-37338000D03*
X222504000Y-22300000D03*
X236855000Y-56261000D03*
X244729000Y-87630000D03*
X246380000Y-75311000D03*
%TO.N,COL11*%
X272415000Y-75311000D03*
X255778000Y-56261000D03*
X241554000Y-22352000D03*
X270764000Y-87630000D03*
X251079000Y-37338000D03*
%TO.N,COL12*%
X286766000Y-56261000D03*
X278638000Y-87630000D03*
X279654000Y-94615000D03*
X270129000Y-37338000D03*
X260604000Y-22400000D03*
%TO.N,COL13*%
X298704000Y-75311000D03*
X298704000Y-94615000D03*
X297815000Y-87630000D03*
X289184000Y-22352000D03*
X294005000Y-37338000D03*
%TO.N,COL14*%
X317246000Y-75311000D03*
X317754000Y-94615000D03*
X317246000Y-22352000D03*
X317246000Y-56261000D03*
X313690000Y-87757000D03*
X317246000Y-37338000D03*
%TO.N,RST*%
X56642000Y-88646000D03*
X97028000Y-102499000D03*
X55626000Y-84963000D03*
%TO.N,D+*%
X116078000Y-106680000D03*
X82423000Y-46863000D03*
%TO.N,D-*%
X115443000Y-107315000D03*
X81280000Y-46863000D03*
%TO.N,MOSI*%
X112649000Y-107315000D03*
%TO.N,SCLK*%
X113284000Y-107950000D03*
%TO.N,MISO*%
X112014000Y-106680000D03*
%TO.N,VBUS*%
X33100000Y-24800000D03*
X37001000Y-24765000D03*
%TO.N,RGB*%
X68072000Y-107696000D03*
X81661000Y-107687510D03*
X92964000Y-105682210D03*
%TO.N,Net-(RGB1-Pad4)*%
X84137500Y-106362500D03*
X85725000Y-107950000D03*
%TO.N,Net-(RGB2-Pad4)*%
X144462500Y-106362500D03*
X146050000Y-107950000D03*
%TO.N,Net-(RGB3-Pad4)*%
X169291000Y-107950000D03*
X165893750Y-106362500D03*
%TO.N,Net-(RGB4-Pad4)*%
X188912500Y-107950000D03*
X187325000Y-106362500D03*
%TO.N,Net-(RGB5-Pad4)*%
X249237500Y-107950000D03*
X247650000Y-106362500D03*
%TO.N,Net-(RGB6-Pad4)*%
X274637500Y-107950000D03*
X273050000Y-106362500D03*
%TD*%
D17*
%TO.N,ROW4*%
X138049000Y-96139000D02*
X133541843Y-96139000D01*
X133541843Y-96139000D02*
X125159843Y-104521000D01*
X125159843Y-104521000D02*
X123063000Y-104521000D01*
D18*
%TO.N,GND*%
X142875000Y-105737500D02*
X143710500Y-104902000D01*
X54825997Y-84963000D02*
X54825997Y-87845997D01*
X32893000Y-25908000D02*
X36975921Y-25908000D01*
X36975921Y-25908000D02*
X37211000Y-25908000D01*
X143710500Y-104902000D02*
X146812000Y-104902000D01*
X54825997Y-87845997D02*
X55626000Y-88646000D01*
D17*
%TO.N,ROW0*%
X94107000Y-29718000D02*
X101981000Y-37592000D01*
X31623000Y-32385000D02*
X37465000Y-32385000D01*
X106299001Y-52342002D02*
X106299001Y-67184411D01*
X114173000Y-75058410D02*
X114173000Y-85725000D01*
X101981000Y-48024001D02*
X106299001Y-52342002D01*
X101981000Y-37592000D02*
X101981000Y-48024001D01*
X114173000Y-85725000D02*
X115697000Y-87249000D01*
X106299001Y-67184411D02*
X114173000Y-75058410D01*
%TO.N,ROW1*%
X114623010Y-85159010D02*
X114623010Y-74872010D01*
X116713000Y-87249000D02*
X114623010Y-85159010D01*
X114623010Y-74872010D02*
X106749010Y-66998010D01*
X106749010Y-66998010D02*
X106749010Y-51885010D01*
X106749010Y-51885010D02*
X103886000Y-49022000D01*
%TO.N,ROW2*%
X115073020Y-84720020D02*
X117602000Y-87249000D01*
X115073020Y-74433020D02*
X115073020Y-84720020D01*
X108585000Y-67945000D02*
X115073020Y-74433020D01*
%TO.N,ROW4*%
X96266000Y-103124000D02*
X97202991Y-104060991D01*
X118872000Y-108712000D02*
X123063000Y-104521000D01*
X97202992Y-105330992D02*
X100584000Y-108712000D01*
X85090000Y-103124000D02*
X96266000Y-103124000D01*
X100584000Y-108712000D02*
X118872000Y-108712000D01*
X97202991Y-104060991D02*
X97202992Y-105330992D01*
D18*
%TO.N,VCC*%
X99887980Y-91874999D02*
X99887980Y-102120510D01*
X80264000Y-46863000D02*
X80264000Y-47371000D01*
X92964000Y-106807000D02*
X92964000Y-107315000D01*
X112014000Y-99837500D02*
X112014000Y-101219000D01*
X93695999Y-94838999D02*
X99887980Y-101030980D01*
X85801200Y-66215128D02*
X95504000Y-75917928D01*
X95758000Y-104013000D02*
X92964000Y-106807000D01*
X133604000Y-107061000D02*
X128778000Y-102235000D01*
X110678020Y-104074020D02*
X101841490Y-104074020D01*
X124079000Y-90424000D02*
X125222000Y-91567000D01*
X126111000Y-102567500D02*
X125070750Y-103607750D01*
X91089001Y-94838999D02*
X93695999Y-94838999D01*
X112014000Y-92456000D02*
X113919000Y-90424000D01*
X89789000Y-96139000D02*
X91089001Y-94838999D01*
X95504000Y-75917928D02*
X95504000Y-87491019D01*
X113919000Y-90424000D02*
X124079000Y-90424000D01*
X126111000Y-92456000D02*
X126111000Y-102489000D01*
X115316000Y-104521000D02*
X118110000Y-104521000D01*
X81026000Y-48133000D02*
X81026000Y-51409600D01*
X126111000Y-102489000D02*
X126111000Y-102567500D01*
X80264000Y-47371000D02*
X81026000Y-48133000D01*
X143129000Y-107061000D02*
X133604000Y-107061000D01*
X112014000Y-99837500D02*
X112014000Y-92456000D01*
X125222000Y-91567000D02*
X126111000Y-92456000D01*
X85801200Y-56184800D02*
X85801200Y-66215128D01*
X81026000Y-51409600D02*
X85801200Y-56184800D01*
X101841490Y-104074020D02*
X99887980Y-102120510D01*
X95504000Y-87491019D02*
X99887980Y-91874999D01*
X112014000Y-101219000D02*
X115316000Y-104521000D01*
X99887980Y-101030980D02*
X99887980Y-102120510D01*
X114681000Y-108077000D02*
X110678020Y-104074020D01*
D17*
%TO.N,COL0*%
X30400000Y-35000000D02*
X30400000Y-30100000D01*
X36830000Y-38354000D02*
X35941000Y-37465000D01*
X34417000Y-90932000D02*
X37338000Y-88011000D01*
X36830000Y-53975000D02*
X36830000Y-38354000D01*
X34417000Y-94615000D02*
X34417000Y-90932000D01*
X44958000Y-88011000D02*
X43942000Y-86995000D01*
X37338000Y-88011000D02*
X44958000Y-88011000D01*
X32865000Y-37465000D02*
X30400000Y-35000000D01*
X39116000Y-56261000D02*
X36830000Y-53975000D01*
X39100000Y-70469000D02*
X43942000Y-75311000D01*
X35941000Y-37465000D02*
X32865000Y-37465000D01*
X39116000Y-56261000D02*
X39100000Y-70469000D01*
X43942000Y-86995000D02*
X43942000Y-75311000D01*
X30400000Y-30433000D02*
X30400000Y-30100000D01*
%TO.N,COL1*%
X61849000Y-87376000D02*
X76200000Y-87376000D01*
X60579000Y-37338000D02*
X60579000Y-51562000D01*
X65278000Y-65659000D02*
X74930000Y-75311000D01*
X65261249Y-56244249D02*
X65261249Y-56261000D01*
X58293000Y-90932000D02*
X61849000Y-87376000D01*
X60579000Y-37338000D02*
X55372000Y-32131000D01*
X74914000Y-75300000D02*
X74930000Y-75311000D01*
X55372000Y-32131000D02*
X49276000Y-32131000D01*
X65278000Y-56388000D02*
X65278000Y-56261000D01*
X65278000Y-56261000D02*
X65278000Y-65659000D01*
X74930000Y-86106000D02*
X76200000Y-87376000D01*
X58293000Y-94615000D02*
X58293000Y-90932000D01*
X74930000Y-75311000D02*
X74930000Y-86106000D01*
X60579000Y-51562000D02*
X65261249Y-56244249D01*
%TO.N,COL2*%
X93853000Y-85979000D02*
X94615000Y-86741000D01*
X82042000Y-94615000D02*
X82042000Y-91059000D01*
X79502000Y-36703000D02*
X70104000Y-27305000D01*
X79502000Y-51430250D02*
X79502000Y-37338000D01*
X82042000Y-91059000D02*
X86360000Y-86741000D01*
X84322500Y-65907500D02*
X93853000Y-75438000D01*
X84328000Y-56261000D02*
X84328000Y-56256250D01*
X70104000Y-27305000D02*
X70104000Y-22352000D01*
X93853000Y-75438000D02*
X93853000Y-85979000D01*
X86360000Y-86741000D02*
X94615000Y-86741000D01*
X84328000Y-56256250D02*
X79502000Y-51430250D01*
X84322500Y-56261000D02*
X84322500Y-65907500D01*
X79502000Y-37338000D02*
X79502000Y-36703000D01*
%TO.N,COL3*%
X113030000Y-85725000D02*
X112014000Y-86741000D01*
X113030000Y-75311000D02*
X113030000Y-85725000D01*
X89154000Y-28067000D02*
X89154000Y-22352000D01*
X98614000Y-37338000D02*
X98587000Y-37338000D01*
X113030000Y-75311000D02*
X103378000Y-65659000D01*
X98614000Y-51497000D02*
X98614000Y-37338000D01*
X103378000Y-56261000D02*
X98614000Y-51497000D01*
X103378000Y-65659000D02*
X103378000Y-56261000D01*
X98587000Y-37338000D02*
X89154000Y-28067000D01*
%TO.N,COL4*%
X122428000Y-56261000D02*
X117602000Y-51435000D01*
X130302000Y-86487000D02*
X131953000Y-84836000D01*
X122428000Y-65786000D02*
X122428000Y-56261000D01*
X117602000Y-37338000D02*
X108204000Y-28067000D01*
X131953000Y-75311000D02*
X122428000Y-65786000D01*
X108204000Y-28067000D02*
X108204000Y-22352000D01*
X117602000Y-51435000D02*
X117602000Y-37338000D01*
X131953000Y-84836000D02*
X131953000Y-75311000D01*
%TO.N,COL5*%
X151130000Y-75311000D02*
X141478000Y-65659000D01*
X151130000Y-84836000D02*
X151130000Y-75311000D01*
X127254000Y-27940000D02*
X127254000Y-22352000D01*
X141478000Y-65659000D02*
X141478000Y-56261000D01*
X141478000Y-56261000D02*
X136652000Y-51435000D01*
X136652000Y-51435000D02*
X136652000Y-37338000D01*
X151130000Y-75311000D02*
X151130000Y-79223498D01*
X149479000Y-86487000D02*
X151130000Y-88138000D01*
X151130000Y-92202000D02*
X151130000Y-88138000D01*
X149479000Y-86487000D02*
X151130000Y-84836000D01*
X153543000Y-94615000D02*
X151130000Y-92202000D01*
X136652000Y-37338000D02*
X127254000Y-27940000D01*
%TO.N,COL6*%
X155829000Y-37338000D02*
X146304000Y-27813000D01*
X146304000Y-27813000D02*
X146304000Y-22352000D01*
X168529000Y-86741000D02*
X170053000Y-85217000D01*
X155829000Y-51562000D02*
X155829000Y-42050000D01*
X160528000Y-56261000D02*
X155829000Y-51562000D01*
X170053000Y-75311000D02*
X160528000Y-65786000D01*
X170053000Y-85217000D02*
X170053000Y-75311000D01*
X155829000Y-37338000D02*
X155829000Y-42037000D01*
X160528000Y-65786000D02*
X160528000Y-56261000D01*
%TO.N,COL7*%
X179578000Y-65786000D02*
X179578000Y-56261000D01*
X179578000Y-56261000D02*
X174879000Y-51562000D01*
X189103000Y-85344000D02*
X189103000Y-75311000D01*
X187452000Y-86995000D02*
X189103000Y-85344000D01*
X189103000Y-75311000D02*
X179578000Y-65786000D01*
X165354000Y-27813000D02*
X165354000Y-22352000D01*
X174879000Y-37338000D02*
X165354000Y-27813000D01*
X174879000Y-51562000D02*
X174879000Y-37338000D01*
%TO.N,COL8*%
X208280000Y-85598000D02*
X208280000Y-75311000D01*
X206629000Y-87249000D02*
X208280000Y-85598000D01*
X186254000Y-29700000D02*
X186254000Y-29790000D01*
X184404000Y-27820000D02*
X186284000Y-29700000D01*
X198755000Y-65786000D02*
X198755000Y-56261000D01*
X198755000Y-56261000D02*
X193802000Y-51308000D01*
X184404000Y-22420000D02*
X184404000Y-27820000D01*
X186254000Y-29790000D02*
X193802000Y-37338000D01*
X208280000Y-75311000D02*
X198755000Y-65786000D01*
X193802000Y-51308000D02*
X193802000Y-37338000D01*
X184384000Y-22400000D02*
X184404000Y-22420000D01*
%TO.N,COL9*%
X227203000Y-75311000D02*
X217678000Y-65786000D01*
X217678000Y-65786000D02*
X217678000Y-56261000D01*
X212852000Y-51435000D02*
X212852000Y-37338000D01*
X226187000Y-87249000D02*
X227203000Y-86233000D01*
X203484000Y-27843000D02*
X203484000Y-22352000D01*
X217678000Y-56261000D02*
X212852000Y-51435000D01*
X212852000Y-37338000D02*
X203484000Y-27843000D01*
X226187000Y-87249000D02*
X227203000Y-88265000D01*
X227203000Y-94615000D02*
X227203000Y-88265000D01*
X227203000Y-86233000D02*
X227203000Y-75311000D01*
%TO.N,COL10*%
X222504000Y-22300000D02*
X222504000Y-27813000D01*
X236855000Y-65786000D02*
X236855000Y-56261000D01*
X236855000Y-56261000D02*
X232029000Y-51435000D01*
X246380000Y-75311000D02*
X246380000Y-85979000D01*
X244729000Y-87630000D02*
X251460000Y-94361000D01*
X251460000Y-94361000D02*
X255524000Y-94361000D01*
X232029000Y-51435000D02*
X232029000Y-37338000D01*
X255524000Y-94361000D02*
X255778000Y-94615000D01*
X222504000Y-27813000D02*
X232029000Y-37338000D01*
X246380000Y-75311000D02*
X236855000Y-65786000D01*
X244729000Y-87630000D02*
X246380000Y-85979000D01*
%TO.N,COL11*%
X272415000Y-75311000D02*
X270764000Y-73660000D01*
X251079000Y-37338000D02*
X241554000Y-27813000D01*
X270764000Y-73660000D02*
X263398000Y-73660000D01*
X255778000Y-56261000D02*
X251079000Y-51562000D01*
X272415000Y-86190758D02*
X272415000Y-75311000D01*
X270764000Y-87630000D02*
X272415000Y-86190758D01*
X241554000Y-27813000D02*
X241554000Y-22352000D01*
X255778000Y-66040000D02*
X255778000Y-56261000D01*
X251079000Y-51562000D02*
X251079000Y-37338000D01*
X263398000Y-73660000D02*
X255778000Y-66040000D01*
%TO.N,COL12*%
X286766000Y-56261000D02*
X285115000Y-54610000D01*
X279654000Y-94615000D02*
X279654000Y-88773000D01*
X285115000Y-54610000D02*
X279527000Y-54610000D01*
X282956000Y-74930000D02*
X286766000Y-71120000D01*
X286766000Y-71120000D02*
X286766000Y-56261000D01*
X278638000Y-87630000D02*
X282956000Y-83312000D01*
X279527000Y-54610000D02*
X270129000Y-45212000D01*
X260604000Y-27813000D02*
X260604000Y-22400000D01*
X270129000Y-37338000D02*
X260604000Y-27813000D01*
X278638000Y-87630000D02*
X279654000Y-88646000D01*
X279654000Y-88646000D02*
X279654000Y-88773000D01*
X282956000Y-83312000D02*
X282956000Y-74930000D01*
X270129000Y-45212000D02*
X270129000Y-37338000D01*
%TO.N,COL13*%
X297815000Y-87630000D02*
X298704000Y-88519000D01*
X297815000Y-87630000D02*
X298704000Y-86741000D01*
X298704000Y-42037000D02*
X294005000Y-37338000D01*
X294005000Y-37338000D02*
X289184000Y-32517000D01*
X298704000Y-88519000D02*
X298704000Y-94615000D01*
X298704000Y-75311000D02*
X298704000Y-42037000D01*
X298704000Y-86741000D02*
X298704000Y-75311000D01*
X289184000Y-32517000D02*
X289184000Y-22352000D01*
%TO.N,COL14*%
X314706000Y-43307000D02*
X317246000Y-40767000D01*
X314706000Y-34798000D02*
X314706000Y-24892000D01*
X317200000Y-78900000D02*
X317246000Y-75311000D01*
X313690000Y-87757000D02*
X314706000Y-86741000D01*
X317246000Y-40767000D02*
X317246000Y-37338000D01*
X314706000Y-72771000D02*
X314706000Y-62494000D01*
X317246000Y-59954000D02*
X317246000Y-56261000D01*
X317754000Y-94615000D02*
X317754000Y-91821000D01*
X317246000Y-37338000D02*
X314706000Y-34798000D01*
X314706000Y-62494000D02*
X317246000Y-59954000D01*
X314706000Y-81394000D02*
X317200000Y-78900000D01*
X314706000Y-86741000D02*
X314706000Y-81394000D01*
X317246000Y-75311000D02*
X314706000Y-72771000D01*
X314706000Y-24892000D02*
X317246000Y-22352000D01*
X317754000Y-91821000D02*
X313690000Y-87757000D01*
X317246000Y-56261000D02*
X314706000Y-53848000D01*
X314706000Y-53848000D02*
X314706000Y-43307000D01*
%TO.N,RST*%
X97018000Y-102489000D02*
X97028000Y-102499000D01*
X92329000Y-101219000D02*
X93609000Y-102499000D01*
X55626000Y-84963000D02*
X55626000Y-87630000D01*
X97028000Y-102499000D02*
X93609000Y-102499000D01*
X55626000Y-87630000D02*
X56642000Y-88646000D01*
%TO.N,D+*%
X100962981Y-91429720D02*
X96579001Y-87045740D01*
X82051020Y-47234980D02*
X82423000Y-46863000D01*
X82051020Y-50985024D02*
X82051020Y-47234980D01*
X96579001Y-75472649D02*
X86826220Y-65719868D01*
X86826219Y-55760223D02*
X82051020Y-50985024D01*
X100962981Y-101675229D02*
X100962981Y-91429720D01*
X102241099Y-102953347D02*
X100962981Y-101675229D01*
X86826220Y-65719868D02*
X86826219Y-55760223D01*
X112351347Y-102953347D02*
X102241099Y-102953347D01*
X96579001Y-87045740D02*
X96579001Y-75472649D01*
X116078000Y-106680000D02*
X112351347Y-102953347D01*
%TO.N,D-*%
X115443000Y-107315000D02*
X111581338Y-103453338D01*
X100462990Y-91636823D02*
X96079010Y-87252843D01*
X96079010Y-87252843D02*
X96079010Y-75679752D01*
X111581338Y-103453338D02*
X102033982Y-103453338D01*
X81601010Y-47184010D02*
X81280000Y-46863000D01*
X100462990Y-101882346D02*
X100462990Y-91636823D01*
X86376210Y-65976952D02*
X86376210Y-55946624D01*
X96079010Y-75679752D02*
X86376210Y-65976952D01*
X81601010Y-51171424D02*
X81601010Y-47184010D01*
X102033982Y-103453338D02*
X100462990Y-101882346D01*
X86376210Y-55946624D02*
X81601010Y-51171424D01*
%TO.N,Net-(C8-Pad1)*%
X39245000Y-22592500D02*
X39245000Y-18412500D01*
X30605000Y-22592500D02*
X30605000Y-18412500D01*
%TO.N,MOSI*%
X98103011Y-100695607D02*
X94721405Y-97314001D01*
X112649000Y-107315000D02*
X100459820Y-107315000D01*
X91153999Y-97314001D02*
X89789000Y-98679000D01*
X94721405Y-97314001D02*
X91153999Y-97314001D01*
X100459820Y-107315000D02*
X98103011Y-104958191D01*
X98103011Y-104958191D02*
X98103011Y-100695607D01*
%TO.N,SCLK*%
X113284000Y-107950000D02*
X100458410Y-107950000D01*
X100458410Y-107950000D02*
X97653001Y-105144591D01*
X97653001Y-105144591D02*
X97653001Y-100882007D01*
X97653001Y-100882007D02*
X95449994Y-98679000D01*
X95449994Y-98679000D02*
X92329000Y-98679000D01*
%TO.N,MISO*%
X98553021Y-100509207D02*
X94182814Y-96139000D01*
X100461230Y-106680000D02*
X98553021Y-104771791D01*
X112014000Y-106680000D02*
X100461230Y-106680000D01*
X98553021Y-104771791D02*
X98553021Y-100509207D01*
X94182814Y-96139000D02*
X92329000Y-96139000D01*
D18*
%TO.N,VBUS*%
X37001000Y-24765000D02*
X33401000Y-24765000D01*
D17*
%TO.N,RGB*%
X81792245Y-107687510D02*
X83797545Y-105682210D01*
X92908710Y-105737500D02*
X92964000Y-105682210D01*
X83797545Y-105682210D02*
X92964000Y-105682210D01*
X81661000Y-107687510D02*
X81792245Y-107687510D01*
%TO.N,Net-(RGB1-Pad4)*%
X85725000Y-107950000D02*
X84137500Y-106362500D01*
%TO.N,Net-(RGB2-Pad4)*%
X146050000Y-107950000D02*
X144462500Y-106362500D01*
%TO.N,Net-(RGB3-Pad4)*%
X167703500Y-106362500D02*
X169291000Y-107950000D01*
X165893750Y-106362500D02*
X167703500Y-106362500D01*
%TO.N,Net-(RGB4-Pad4)*%
X187325000Y-106362500D02*
X188912500Y-107950000D01*
%TO.N,Net-(RGB5-Pad4)*%
X249237500Y-107950000D02*
X247650000Y-106362500D01*
%TO.N,Net-(RGB6-Pad4)*%
X274637500Y-107950000D02*
X273050000Y-106362500D01*
%TD*%
M02*
