%TF.GenerationSoftware,KiCad,Pcbnew,(5.99.0-2809-gaceed2b0a4)*%
%TF.CreationDate,2020-08-26T23:20:53-04:00*%
%TF.ProjectId,athene-pcb,61746865-6e65-42d7-9063-622e6b696361,rev?*%
%TF.SameCoordinates,Original*%
%TF.FileFunction,Soldermask,Bot*%
%TF.FilePolarity,Negative*%
%FSLAX46Y46*%
G04 Gerber Fmt 4.6, Leading zero omitted, Abs format (unit mm)*
G04 Created by KiCad (PCBNEW (5.99.0-2809-gaceed2b0a4)) date 2020-08-26 23:20:53*
%MOMM*%
%LPD*%
G01*
G04 APERTURE LIST*
%ADD10C,6.100000*%
%ADD11C,3.987800*%
%ADD12C,3.048000*%
%ADD13C,3.300000*%
%ADD14R,1.200000X0.900000*%
%ADD15R,2.550000X2.500000*%
%ADD16C,2.950000*%
%ADD17C,1.700000*%
%ADD18C,3.980180*%
%ADD19R,0.600000X1.450000*%
%ADD20R,0.300000X1.450000*%
%ADD21C,0.650000*%
%ADD22R,0.900000X1.200000*%
%ADD23R,1.500000X1.000000*%
%ADD24R,1.700000X1.700000*%
%ADD25C,2.550000*%
%ADD26R,1.200000X1.400000*%
%ADD27R,1.100000X1.800000*%
%ADD28R,1.060000X0.650000*%
%ADD29R,0.550000X1.500000*%
%ADD30R,1.500000X0.550000*%
G04 APERTURE END LIST*
D10*
%TO.C,Poker_oval_hole*%
X203200000Y-101600000D03*
%TD*%
D11*
%TO.C,ST_LSHIFT*%
X49244250Y-90805000D03*
D12*
X25368250Y-75565000D03*
D11*
X25368250Y-90805000D03*
D12*
X49244250Y-75565000D03*
%TD*%
%TO.C,ST_BKSP*%
X270637000Y-18415000D03*
D11*
X270637000Y-33655000D03*
D12*
X294513000Y-18415000D03*
D11*
X294513000Y-33655000D03*
%TD*%
D13*
%TO.C,HOLE5*%
X282575000Y-101600000D03*
%TD*%
%TO.C,HOLE5*%
X144462500Y-63500000D03*
%TD*%
D10*
%TO.C,Poker_oval_hole*%
X40481250Y-101600000D03*
%TD*%
D11*
%TO.C,ST_ENTER*%
X292131750Y-55245000D03*
X268255750Y-55245000D03*
D12*
X292131750Y-70485000D03*
X268255750Y-70485000D03*
%TD*%
D10*
%TO.C,Poker_oval_hole*%
X40481250Y-44450000D03*
%TD*%
%TO.C,Poker_oval_hole*%
X276225000Y-44454000D03*
%TD*%
D14*
%TO.C,D32*%
X51196875Y-66675000D03*
X51196875Y-63375000D03*
%TD*%
%TO.C,D13*%
X246459375Y-28637500D03*
X246459375Y-25337500D03*
%TD*%
%TO.C,C9*%
G36*
G01*
X66337500Y-107905666D02*
X65425000Y-107905666D01*
G75*
G02*
X65181250Y-107661916I0J243750D01*
G01*
X65181250Y-107174416D01*
G75*
G02*
X65425000Y-106930666I243750J0D01*
G01*
X66337500Y-106930666D01*
G75*
G02*
X66581250Y-107174416I0J-243750D01*
G01*
X66581250Y-107661916D01*
G75*
G02*
X66337500Y-107905666I-243750J0D01*
G01*
G37*
G36*
G01*
X66337500Y-106030666D02*
X65425000Y-106030666D01*
G75*
G02*
X65181250Y-105786916I0J243750D01*
G01*
X65181250Y-105299416D01*
G75*
G02*
X65425000Y-105055666I243750J0D01*
G01*
X66337500Y-105055666D01*
G75*
G02*
X66581250Y-105299416I0J-243750D01*
G01*
X66581250Y-105786916D01*
G75*
G02*
X66337500Y-106030666I-243750J0D01*
G01*
G37*
%TD*%
%TO.C,D30*%
X303768125Y-47687500D03*
X303768125Y-44387500D03*
%TD*%
%TO.C,C2*%
G36*
G01*
X108678625Y-98462125D02*
X108678625Y-99374625D01*
G75*
G02*
X108434875Y-99618375I-243750J0D01*
G01*
X107947375Y-99618375D01*
G75*
G02*
X107703625Y-99374625I0J243750D01*
G01*
X107703625Y-98462125D01*
G75*
G02*
X107947375Y-98218375I243750J0D01*
G01*
X108434875Y-98218375D01*
G75*
G02*
X108678625Y-98462125I0J-243750D01*
G01*
G37*
G36*
G01*
X106803625Y-98462125D02*
X106803625Y-99374625D01*
G75*
G02*
X106559875Y-99618375I-243750J0D01*
G01*
X106072375Y-99618375D01*
G75*
G02*
X105828625Y-99374625I0J243750D01*
G01*
X105828625Y-98462125D01*
G75*
G02*
X106072375Y-98218375I243750J0D01*
G01*
X106559875Y-98218375D01*
G75*
G02*
X106803625Y-98462125I0J-243750D01*
G01*
G37*
%TD*%
D15*
%TO.C,K54*%
X226752500Y-77470000D03*
X213302500Y-80010000D03*
D16*
X216852500Y-80010000D03*
X223202500Y-77470000D03*
D17*
X225742500Y-82550000D03*
D18*
X220662500Y-82550000D03*
D17*
X215582500Y-82550000D03*
%TD*%
D14*
%TO.C,D6*%
X113109375Y-28637500D03*
X113109375Y-25337500D03*
%TD*%
D19*
%TO.C,J1*%
X38150000Y-23507500D03*
X37375000Y-23507500D03*
D20*
X36675000Y-23507500D03*
X36175000Y-23507500D03*
X35675000Y-23507500D03*
X35175000Y-23507500D03*
X34675000Y-23507500D03*
X34175000Y-23507500D03*
X33675000Y-23507500D03*
X33175000Y-23507500D03*
D19*
X32475000Y-23507500D03*
X31700000Y-23507500D03*
D21*
X37815000Y-22062500D03*
X32035000Y-22062500D03*
%TD*%
D14*
%TO.C,D5*%
X94059375Y-28637500D03*
X94059375Y-25337500D03*
%TD*%
D15*
%TO.C,K14*%
X288665000Y-20320000D03*
X275215000Y-22860000D03*
D17*
X287655000Y-25400000D03*
D16*
X278765000Y-22860000D03*
X285115000Y-20320000D03*
D18*
X282575000Y-25400000D03*
D17*
X277495000Y-25400000D03*
%TD*%
D14*
%TO.C,D3*%
X55959375Y-28637500D03*
X55959375Y-25337500D03*
%TD*%
%TO.C,D40*%
X203596875Y-66737500D03*
X203596875Y-63437500D03*
%TD*%
%TO.C,D7*%
X132159375Y-28637500D03*
X132159375Y-25337500D03*
%TD*%
D15*
%TO.C,K58*%
X317240000Y-77470000D03*
X303790000Y-80010000D03*
D17*
X306070000Y-82550000D03*
D16*
X313690000Y-77470000D03*
D18*
X311150000Y-82550000D03*
D16*
X307340000Y-80010000D03*
D17*
X316230000Y-82550000D03*
%TD*%
D15*
%TO.C,K24*%
X193415000Y-39370000D03*
X179965000Y-41910000D03*
D16*
X183515000Y-41910000D03*
X189865000Y-39370000D03*
D18*
X187325000Y-44450000D03*
D17*
X192405000Y-44450000D03*
X182245000Y-44450000D03*
%TD*%
D14*
%TO.C,D25*%
X198993125Y-47687500D03*
X198993125Y-44387500D03*
%TD*%
%TO.C,D27*%
X237093125Y-47687500D03*
X237093125Y-44387500D03*
%TD*%
%TO.C,D43*%
X272653125Y-66737500D03*
X272653125Y-63437500D03*
%TD*%
%TO.C,C6*%
G36*
G01*
X126924750Y-91031000D02*
X127837250Y-91031000D01*
G75*
G02*
X128081000Y-91274750I0J-243750D01*
G01*
X128081000Y-91762250D01*
G75*
G02*
X127837250Y-92006000I-243750J0D01*
G01*
X126924750Y-92006000D01*
G75*
G02*
X126681000Y-91762250I0J243750D01*
G01*
X126681000Y-91274750D01*
G75*
G02*
X126924750Y-91031000I243750J0D01*
G01*
G37*
G36*
G01*
X126924750Y-92906000D02*
X127837250Y-92906000D01*
G75*
G02*
X128081000Y-93149750I0J-243750D01*
G01*
X128081000Y-93637250D01*
G75*
G02*
X127837250Y-93881000I-243750J0D01*
G01*
X126924750Y-93881000D01*
G75*
G02*
X126681000Y-93637250I0J243750D01*
G01*
X126681000Y-93149750D01*
G75*
G02*
X126924750Y-92906000I243750J0D01*
G01*
G37*
%TD*%
D15*
%TO.C,K51*%
X169602500Y-77470000D03*
X156152500Y-80010000D03*
D16*
X159702500Y-80010000D03*
X166052500Y-77470000D03*
D17*
X168592500Y-82550000D03*
X158432500Y-82550000D03*
D18*
X163512500Y-82550000D03*
%TD*%
D14*
%TO.C,D2*%
X51990625Y-33400000D03*
X51990625Y-30100000D03*
%TD*%
D15*
%TO.C,K22*%
X155315000Y-39370000D03*
X141865000Y-41910000D03*
D18*
X149225000Y-44450000D03*
D16*
X151765000Y-39370000D03*
D17*
X154305000Y-44450000D03*
X144145000Y-44450000D03*
D16*
X145415000Y-41910000D03*
%TD*%
D14*
%TO.C,D49*%
X117871875Y-85850000D03*
X117871875Y-82550000D03*
%TD*%
D15*
%TO.C,K59*%
X33871250Y-96520000D03*
X20421250Y-99060000D03*
D16*
X30321250Y-96520000D03*
D18*
X27781250Y-101600000D03*
D17*
X22701250Y-101600000D03*
D16*
X23971250Y-99060000D03*
D17*
X32861250Y-101600000D03*
%TD*%
D15*
%TO.C,K15*%
X317240000Y-20320000D03*
X303790000Y-22860000D03*
D17*
X316230000Y-25400000D03*
D16*
X313690000Y-20320000D03*
D18*
X311150000Y-25400000D03*
D16*
X307340000Y-22860000D03*
D17*
X306070000Y-25400000D03*
%TD*%
D14*
%TO.C,D50*%
X136921875Y-85850000D03*
X136921875Y-82550000D03*
%TD*%
D22*
%TO.C,D1*%
X22294326Y-33337500D03*
X18994326Y-33337500D03*
%TD*%
D15*
%TO.C,K6*%
X126740000Y-20320000D03*
X113290000Y-22860000D03*
D16*
X116840000Y-22860000D03*
D17*
X115570000Y-25400000D03*
D16*
X123190000Y-20320000D03*
D18*
X120650000Y-25400000D03*
D17*
X125730000Y-25400000D03*
%TD*%
D15*
%TO.C,K55*%
X245802500Y-77470000D03*
X232352500Y-80010000D03*
D16*
X242252500Y-77470000D03*
D17*
X244792500Y-82550000D03*
X234632500Y-82550000D03*
D16*
X235902500Y-80010000D03*
D18*
X239712500Y-82550000D03*
%TD*%
D14*
%TO.C,D38*%
X165496875Y-66737500D03*
X165496875Y-63437500D03*
%TD*%
%TO.C,D36*%
X127396875Y-66737500D03*
X127396875Y-63437500D03*
%TD*%
D15*
%TO.C,K9*%
X183890000Y-20320000D03*
X170440000Y-22860000D03*
D17*
X182880000Y-25400000D03*
D16*
X173990000Y-22860000D03*
X180340000Y-20320000D03*
D17*
X172720000Y-25400000D03*
D18*
X177800000Y-25400000D03*
%TD*%
D15*
%TO.C,K53*%
X207702500Y-77470000D03*
X194252500Y-80010000D03*
D18*
X201612500Y-82550000D03*
D17*
X196532500Y-82550000D03*
D16*
X197802500Y-80010000D03*
D17*
X206692500Y-82550000D03*
D16*
X204152500Y-77470000D03*
%TD*%
D23*
%TO.C,RGB3*%
X149293750Y-104762500D03*
X149293750Y-107962500D03*
X144393750Y-107962500D03*
X144393750Y-104762500D03*
%TD*%
D15*
%TO.C,K31*%
X38633750Y-58420000D03*
X25183750Y-60960000D03*
D17*
X27463750Y-63500000D03*
D18*
X32543750Y-63500000D03*
D16*
X28733750Y-60960000D03*
X35083750Y-58420000D03*
D17*
X37623750Y-63500000D03*
%TD*%
D14*
%TO.C,D46*%
X60721875Y-85850000D03*
X60721875Y-82550000D03*
%TD*%
%TO.C,D16*%
X22621875Y-47687500D03*
X22621875Y-44387500D03*
%TD*%
%TO.C,R4*%
G36*
G01*
X38669804Y-36167707D02*
X38669804Y-35255207D01*
G75*
G02*
X38913554Y-35011457I243750J0D01*
G01*
X39401054Y-35011457D01*
G75*
G02*
X39644804Y-35255207I0J-243750D01*
G01*
X39644804Y-36167707D01*
G75*
G02*
X39401054Y-36411457I-243750J0D01*
G01*
X38913554Y-36411457D01*
G75*
G02*
X38669804Y-36167707I0J243750D01*
G01*
G37*
G36*
G01*
X40544804Y-36167707D02*
X40544804Y-35255207D01*
G75*
G02*
X40788554Y-35011457I243750J0D01*
G01*
X41276054Y-35011457D01*
G75*
G02*
X41519804Y-35255207I0J-243750D01*
G01*
X41519804Y-36167707D01*
G75*
G02*
X41276054Y-36411457I-243750J0D01*
G01*
X40788554Y-36411457D01*
G75*
G02*
X40544804Y-36167707I0J243750D01*
G01*
G37*
%TD*%
D15*
%TO.C,K28*%
X269615000Y-39370000D03*
X256165000Y-41910000D03*
D17*
X258445000Y-44450000D03*
D18*
X263525000Y-44450000D03*
D17*
X268605000Y-44450000D03*
D16*
X266065000Y-39370000D03*
X259715000Y-41910000D03*
%TD*%
D14*
%TO.C,D39*%
X184546875Y-66737500D03*
X184546875Y-63437500D03*
%TD*%
%TO.C,D58*%
X303609375Y-85850000D03*
X303609375Y-82550000D03*
%TD*%
D15*
%TO.C,K30*%
X317240000Y-39370000D03*
X303790000Y-41910000D03*
D18*
X311150000Y-44450000D03*
D17*
X306070000Y-44450000D03*
D16*
X307340000Y-41910000D03*
X313690000Y-39370000D03*
D17*
X316230000Y-44450000D03*
%TD*%
%TO.C,R5*%
G36*
G01*
X108678625Y-101143750D02*
X108678625Y-102056250D01*
G75*
G02*
X108434875Y-102300000I-243750J0D01*
G01*
X107947375Y-102300000D01*
G75*
G02*
X107703625Y-102056250I0J243750D01*
G01*
X107703625Y-101143750D01*
G75*
G02*
X107947375Y-100900000I243750J0D01*
G01*
X108434875Y-100900000D01*
G75*
G02*
X108678625Y-101143750I0J-243750D01*
G01*
G37*
G36*
G01*
X106803625Y-101143750D02*
X106803625Y-102056250D01*
G75*
G02*
X106559875Y-102300000I-243750J0D01*
G01*
X106072375Y-102300000D01*
G75*
G02*
X105828625Y-102056250I0J243750D01*
G01*
X105828625Y-101143750D01*
G75*
G02*
X106072375Y-100900000I243750J0D01*
G01*
X106559875Y-100900000D01*
G75*
G02*
X106803625Y-101143750I0J-243750D01*
G01*
G37*
%TD*%
D14*
%TO.C,D14*%
X275034375Y-28637500D03*
X275034375Y-25337500D03*
%TD*%
%TO.C,D53*%
X194071875Y-85850000D03*
X194071875Y-82550000D03*
%TD*%
%TO.C,D26*%
X218043125Y-47687500D03*
X218043125Y-44387500D03*
%TD*%
%TO.C,D19*%
X84693125Y-47687500D03*
X84693125Y-44387500D03*
%TD*%
D15*
%TO.C,K23*%
X174365000Y-39370000D03*
X160915000Y-41910000D03*
D16*
X170815000Y-39370000D03*
D17*
X163195000Y-44450000D03*
X173355000Y-44450000D03*
D18*
X168275000Y-44450000D03*
D16*
X164465000Y-41910000D03*
%TD*%
D23*
%TO.C,RGB6*%
X252481250Y-104762500D03*
X252481250Y-107962500D03*
X247581250Y-107962500D03*
X247581250Y-104762500D03*
%TD*%
D17*
%TO.C,J2*%
X92329000Y-96139000D03*
X89789000Y-96139000D03*
X92329000Y-98679000D03*
X89789000Y-98679000D03*
X92329000Y-101219000D03*
D24*
X89789000Y-101219000D03*
%TD*%
D14*
%TO.C,D57*%
X284400625Y-85850000D03*
X284400625Y-82550000D03*
%TD*%
%TO.C,D29*%
X281026707Y-49912180D03*
X281026707Y-46612180D03*
%TD*%
%TO.C,R7*%
G36*
G01*
X26388000Y-20649250D02*
X26388000Y-19736750D01*
G75*
G02*
X26631750Y-19493000I243750J0D01*
G01*
X27119250Y-19493000D01*
G75*
G02*
X27363000Y-19736750I0J-243750D01*
G01*
X27363000Y-20649250D01*
G75*
G02*
X27119250Y-20893000I-243750J0D01*
G01*
X26631750Y-20893000D01*
G75*
G02*
X26388000Y-20649250I0J243750D01*
G01*
G37*
G36*
G01*
X28263000Y-20649250D02*
X28263000Y-19736750D01*
G75*
G02*
X28506750Y-19493000I243750J0D01*
G01*
X28994250Y-19493000D01*
G75*
G02*
X29238000Y-19736750I0J-243750D01*
G01*
X29238000Y-20649250D01*
G75*
G02*
X28994250Y-20893000I-243750J0D01*
G01*
X28506750Y-20893000D01*
G75*
G02*
X28263000Y-20649250I0J243750D01*
G01*
G37*
%TD*%
D15*
%TO.C,K17*%
X60065000Y-39370000D03*
X46615000Y-41910000D03*
D17*
X59055000Y-44450000D03*
X48895000Y-44450000D03*
D18*
X53975000Y-44450000D03*
D16*
X50165000Y-41910000D03*
X56515000Y-39370000D03*
%TD*%
D15*
%TO.C,K26*%
X231515000Y-39370000D03*
X218065000Y-41910000D03*
D17*
X220345000Y-44450000D03*
D16*
X227965000Y-39370000D03*
D18*
X225425000Y-44450000D03*
D17*
X230505000Y-44450000D03*
D16*
X221615000Y-41910000D03*
%TD*%
D22*
%TO.C,D63*%
X210281250Y-96043750D03*
X213581250Y-96043750D03*
%TD*%
D14*
%TO.C,D45*%
X29765625Y-85787500D03*
X29765625Y-82487500D03*
%TD*%
%TO.C,D47*%
X79771875Y-85850000D03*
X79771875Y-82550000D03*
%TD*%
D15*
%TO.C,K61*%
X81496250Y-96520000D03*
X68046250Y-99060000D03*
D16*
X77946250Y-96520000D03*
D17*
X80486250Y-101600000D03*
X70326250Y-101600000D03*
D18*
X75406250Y-101600000D03*
D16*
X71596250Y-99060000D03*
%TD*%
D23*
%TO.C,RGB2*%
X88968750Y-104762500D03*
X88968750Y-107962500D03*
X84068750Y-107962500D03*
X84068750Y-104762500D03*
%TD*%
D15*
%TO.C,K5*%
X107690000Y-20320000D03*
X94240000Y-22860000D03*
D16*
X104140000Y-20320000D03*
X97790000Y-22860000D03*
D17*
X96520000Y-25400000D03*
D18*
X101600000Y-25400000D03*
D17*
X106680000Y-25400000D03*
%TD*%
D14*
%TO.C,D56*%
X258365625Y-85850000D03*
X258365625Y-82550000D03*
%TD*%
D15*
%TO.C,K29*%
X293427500Y-39370000D03*
D25*
X280193750Y-41910000D03*
D17*
X292417500Y-44450000D03*
X282257500Y-44450000D03*
D16*
X289877500Y-39370000D03*
X283527500Y-41910000D03*
D18*
X287337500Y-44450000D03*
%TD*%
%TO.C,R3*%
G36*
G01*
X38688031Y-34073511D02*
X38688031Y-33161011D01*
G75*
G02*
X38931781Y-32917261I243750J0D01*
G01*
X39419281Y-32917261D01*
G75*
G02*
X39663031Y-33161011I0J-243750D01*
G01*
X39663031Y-34073511D01*
G75*
G02*
X39419281Y-34317261I-243750J0D01*
G01*
X38931781Y-34317261D01*
G75*
G02*
X38688031Y-34073511I0J243750D01*
G01*
G37*
G36*
G01*
X40563031Y-34073511D02*
X40563031Y-33161011D01*
G75*
G02*
X40806781Y-32917261I243750J0D01*
G01*
X41294281Y-32917261D01*
G75*
G02*
X41538031Y-33161011I0J-243750D01*
G01*
X41538031Y-34073511D01*
G75*
G02*
X41294281Y-34317261I-243750J0D01*
G01*
X40806781Y-34317261D01*
G75*
G02*
X40563031Y-34073511I0J243750D01*
G01*
G37*
%TD*%
%TO.C,C15*%
G36*
G01*
X280549319Y-107787500D02*
X279636819Y-107787500D01*
G75*
G02*
X279393069Y-107543750I0J243750D01*
G01*
X279393069Y-107056250D01*
G75*
G02*
X279636819Y-106812500I243750J0D01*
G01*
X280549319Y-106812500D01*
G75*
G02*
X280793069Y-107056250I0J-243750D01*
G01*
X280793069Y-107543750D01*
G75*
G02*
X280549319Y-107787500I-243750J0D01*
G01*
G37*
G36*
G01*
X280549319Y-105912500D02*
X279636819Y-105912500D01*
G75*
G02*
X279393069Y-105668750I0J243750D01*
G01*
X279393069Y-105181250D01*
G75*
G02*
X279636819Y-104937500I243750J0D01*
G01*
X280549319Y-104937500D01*
G75*
G02*
X280793069Y-105181250I0J-243750D01*
G01*
X280793069Y-105668750D01*
G75*
G02*
X280549319Y-105912500I-243750J0D01*
G01*
G37*
%TD*%
D15*
%TO.C,K47*%
X93402500Y-77470000D03*
X79952500Y-80010000D03*
D17*
X92392500Y-82550000D03*
D16*
X89852500Y-77470000D03*
D18*
X87312500Y-82550000D03*
D17*
X82232500Y-82550000D03*
D16*
X83502500Y-80010000D03*
%TD*%
D14*
%TO.C,D21*%
X122793125Y-47687500D03*
X122793125Y-44387500D03*
%TD*%
D15*
%TO.C,K64*%
X255327500Y-96520000D03*
X241877500Y-99060000D03*
D16*
X245427500Y-99060000D03*
D17*
X254317500Y-101600000D03*
D16*
X251777500Y-96520000D03*
D17*
X244157500Y-101600000D03*
D18*
X249237500Y-101600000D03*
%TD*%
D15*
%TO.C,K2*%
X38360000Y-30480000D03*
X51810000Y-27940000D03*
D16*
X48260000Y-27940000D03*
X41910000Y-30480000D03*
D18*
X44450000Y-25400000D03*
D17*
X39370000Y-25400000D03*
X49530000Y-25400000D03*
%TD*%
D15*
%TO.C,K42*%
X255327500Y-58420000D03*
X241877500Y-60960000D03*
D16*
X245427500Y-60960000D03*
D17*
X254317500Y-63500000D03*
X244157500Y-63500000D03*
D18*
X249237500Y-63500000D03*
D16*
X251777500Y-58420000D03*
%TD*%
D14*
%TO.C,D23*%
X160893125Y-47687500D03*
X160893125Y-44387500D03*
%TD*%
D23*
%TO.C,RGB5*%
X192156250Y-104762500D03*
X192156250Y-107962500D03*
X187256250Y-107962500D03*
X187256250Y-104762500D03*
%TD*%
D15*
%TO.C,K38*%
X179127500Y-58420000D03*
X165677500Y-60960000D03*
D17*
X167957500Y-63500000D03*
D18*
X173037500Y-63500000D03*
D17*
X178117500Y-63500000D03*
D16*
X169227500Y-60960000D03*
X175577500Y-58420000D03*
%TD*%
D26*
%TO.C,Y1*%
X106403625Y-96788375D03*
X106403625Y-94588375D03*
X108103625Y-94588375D03*
X108103625Y-96788375D03*
%TD*%
D15*
%TO.C,K20*%
X117215000Y-39370000D03*
X103765000Y-41910000D03*
D18*
X111125000Y-44450000D03*
D16*
X107315000Y-41910000D03*
D17*
X106045000Y-44450000D03*
D16*
X113665000Y-39370000D03*
D17*
X116205000Y-44450000D03*
%TD*%
D15*
%TO.C,K52*%
X188652500Y-77470000D03*
X175202500Y-80010000D03*
D16*
X178752500Y-80010000D03*
D17*
X177482500Y-82550000D03*
X187642500Y-82550000D03*
D18*
X182562500Y-82550000D03*
D16*
X185102500Y-77470000D03*
%TD*%
D14*
%TO.C,D59*%
X20240625Y-92806250D03*
X20240625Y-96106250D03*
%TD*%
%TO.C,D15*%
X303609375Y-28637500D03*
X303609375Y-25337500D03*
%TD*%
D15*
%TO.C,K27*%
X250565000Y-39370000D03*
X237115000Y-41910000D03*
D17*
X239395000Y-44450000D03*
D18*
X244475000Y-44450000D03*
D16*
X240665000Y-41910000D03*
X247015000Y-39370000D03*
D17*
X249555000Y-44450000D03*
%TD*%
D15*
%TO.C,K4*%
X88640000Y-20320000D03*
X75190000Y-22860000D03*
D17*
X87630000Y-25400000D03*
D18*
X82550000Y-25400000D03*
D16*
X78740000Y-22860000D03*
D17*
X77470000Y-25400000D03*
D16*
X85090000Y-20320000D03*
%TD*%
%TO.C,C10*%
G36*
G01*
X91737500Y-107857200D02*
X90825000Y-107857200D01*
G75*
G02*
X90581250Y-107613450I0J243750D01*
G01*
X90581250Y-107125950D01*
G75*
G02*
X90825000Y-106882200I243750J0D01*
G01*
X91737500Y-106882200D01*
G75*
G02*
X91981250Y-107125950I0J-243750D01*
G01*
X91981250Y-107613450D01*
G75*
G02*
X91737500Y-107857200I-243750J0D01*
G01*
G37*
G36*
G01*
X91737500Y-105982200D02*
X90825000Y-105982200D01*
G75*
G02*
X90581250Y-105738450I0J243750D01*
G01*
X90581250Y-105250950D01*
G75*
G02*
X90825000Y-105007200I243750J0D01*
G01*
X91737500Y-105007200D01*
G75*
G02*
X91981250Y-105250950I0J-243750D01*
G01*
X91981250Y-105738450D01*
G75*
G02*
X91737500Y-105982200I-243750J0D01*
G01*
G37*
%TD*%
D15*
%TO.C,K48*%
X112452500Y-77470000D03*
X99002500Y-80010000D03*
D16*
X102552500Y-80010000D03*
X108902500Y-77470000D03*
D18*
X106362500Y-82550000D03*
D17*
X111442500Y-82550000D03*
X101282500Y-82550000D03*
%TD*%
D15*
%TO.C,K49*%
X131502500Y-77470000D03*
X118052500Y-80010000D03*
D18*
X125412500Y-82550000D03*
D17*
X120332500Y-82550000D03*
D16*
X127952500Y-77470000D03*
X121602500Y-80010000D03*
D17*
X130492500Y-82550000D03*
%TD*%
D14*
%TO.C,D12*%
X227409375Y-28637500D03*
X227409375Y-25337500D03*
%TD*%
%TO.C,D42*%
X241696875Y-66737500D03*
X241696875Y-63437500D03*
%TD*%
D27*
%TO.C,S1*%
X53564353Y-84062500D03*
X57264353Y-77862500D03*
X57264353Y-84062500D03*
X53564353Y-77862500D03*
%TD*%
D15*
%TO.C,K41*%
X236277500Y-58420000D03*
X222827500Y-60960000D03*
D17*
X235267500Y-63500000D03*
D16*
X226377500Y-60960000D03*
D18*
X230187500Y-63500000D03*
D16*
X232727500Y-58420000D03*
D17*
X225107500Y-63500000D03*
%TD*%
D15*
%TO.C,K33*%
X83877500Y-58420000D03*
X70427500Y-60960000D03*
D16*
X80327500Y-58420000D03*
D17*
X82867500Y-63500000D03*
D16*
X73977500Y-60960000D03*
D17*
X72707500Y-63500000D03*
D18*
X77787500Y-63500000D03*
%TD*%
D15*
%TO.C,K1*%
X19310000Y-30480000D03*
X32760000Y-27940000D03*
D16*
X29210000Y-27940000D03*
X22860000Y-30480000D03*
D18*
X25400000Y-25400000D03*
D17*
X20320000Y-25400000D03*
X30480000Y-25400000D03*
%TD*%
D11*
%TO.C,ST_SPACE*%
X96805750Y-93345000D03*
D12*
X196881750Y-108585000D03*
D11*
X196881750Y-93345000D03*
D12*
X96805750Y-108585000D03*
%TD*%
D14*
%TO.C,D48*%
X98821875Y-85850000D03*
X98821875Y-82550000D03*
%TD*%
D15*
%TO.C,K32*%
X64827500Y-58420000D03*
X51377500Y-60960000D03*
D17*
X63817500Y-63500000D03*
D16*
X54927500Y-60960000D03*
D18*
X58737500Y-63500000D03*
D17*
X53657500Y-63500000D03*
D16*
X61277500Y-58420000D03*
%TD*%
D14*
%TO.C,D28*%
X256143125Y-47687500D03*
X256143125Y-44387500D03*
%TD*%
D15*
%TO.C,K19*%
X98165000Y-39370000D03*
X84715000Y-41910000D03*
D16*
X88265000Y-41910000D03*
X94615000Y-39370000D03*
D18*
X92075000Y-44450000D03*
D17*
X86995000Y-44450000D03*
X97155000Y-44450000D03*
%TD*%
D15*
%TO.C,K18*%
X79115000Y-39370000D03*
X65665000Y-41910000D03*
D17*
X67945000Y-44450000D03*
D18*
X73025000Y-44450000D03*
D16*
X69215000Y-41910000D03*
D17*
X78105000Y-44450000D03*
D16*
X75565000Y-39370000D03*
%TD*%
D22*
%TO.C,D65*%
X262668750Y-96043750D03*
X265968750Y-96043750D03*
%TD*%
%TO.C,C3*%
G36*
G01*
X119718669Y-105461750D02*
X119718669Y-106374250D01*
G75*
G02*
X119474919Y-106618000I-243750J0D01*
G01*
X118987419Y-106618000D01*
G75*
G02*
X118743669Y-106374250I0J243750D01*
G01*
X118743669Y-105461750D01*
G75*
G02*
X118987419Y-105218000I243750J0D01*
G01*
X119474919Y-105218000D01*
G75*
G02*
X119718669Y-105461750I0J-243750D01*
G01*
G37*
G36*
G01*
X117843669Y-105461750D02*
X117843669Y-106374250D01*
G75*
G02*
X117599919Y-106618000I-243750J0D01*
G01*
X117112419Y-106618000D01*
G75*
G02*
X116868669Y-106374250I0J243750D01*
G01*
X116868669Y-105461750D01*
G75*
G02*
X117112419Y-105218000I243750J0D01*
G01*
X117599919Y-105218000D01*
G75*
G02*
X117843669Y-105461750I0J-243750D01*
G01*
G37*
%TD*%
D15*
%TO.C,K25*%
X212465000Y-39370000D03*
X199015000Y-41910000D03*
D16*
X208915000Y-39370000D03*
D17*
X211455000Y-44450000D03*
D18*
X206375000Y-44450000D03*
D17*
X201295000Y-44450000D03*
D16*
X202565000Y-41910000D03*
%TD*%
D14*
%TO.C,D20*%
X103743125Y-47687500D03*
X103743125Y-44387500D03*
%TD*%
%TO.C,F1*%
G36*
G01*
X33047596Y-36820634D02*
X33047596Y-35570634D01*
G75*
G02*
X33297596Y-35320634I250000J0D01*
G01*
X34047596Y-35320634D01*
G75*
G02*
X34297596Y-35570634I0J-250000D01*
G01*
X34297596Y-36820634D01*
G75*
G02*
X34047596Y-37070634I-250000J0D01*
G01*
X33297596Y-37070634D01*
G75*
G02*
X33047596Y-36820634I0J250000D01*
G01*
G37*
G36*
G01*
X35847596Y-36820634D02*
X35847596Y-35570634D01*
G75*
G02*
X36097596Y-35320634I250000J0D01*
G01*
X36847596Y-35320634D01*
G75*
G02*
X37097596Y-35570634I0J-250000D01*
G01*
X37097596Y-36820634D01*
G75*
G02*
X36847596Y-37070634I-250000J0D01*
G01*
X36097596Y-37070634D01*
G75*
G02*
X35847596Y-36820634I0J250000D01*
G01*
G37*
%TD*%
D23*
%TO.C,RGB7*%
X277881250Y-104762500D03*
X277881250Y-107962500D03*
X272981250Y-107962500D03*
X272981250Y-104762500D03*
%TD*%
D15*
%TO.C,K50*%
X150552500Y-77470000D03*
X137102500Y-80010000D03*
D17*
X149542500Y-82550000D03*
D16*
X147002500Y-77470000D03*
D18*
X144462500Y-82550000D03*
D17*
X139382500Y-82550000D03*
D16*
X140652500Y-80010000D03*
%TD*%
D15*
%TO.C,K45*%
X43396250Y-77470000D03*
X29946250Y-80010000D03*
D17*
X32226250Y-82550000D03*
D18*
X37306250Y-82550000D03*
D16*
X39846250Y-77470000D03*
D17*
X42386250Y-82550000D03*
D16*
X33496250Y-80010000D03*
%TD*%
D15*
%TO.C,K36*%
X141027500Y-58420000D03*
X127577500Y-60960000D03*
D17*
X129857500Y-63500000D03*
D18*
X134937500Y-63500000D03*
D17*
X140017500Y-63500000D03*
D16*
X137477500Y-58420000D03*
X131127500Y-60960000D03*
%TD*%
D15*
%TO.C,K39*%
X198177500Y-58420000D03*
X184727500Y-60960000D03*
D16*
X188277500Y-60960000D03*
D18*
X192087500Y-63500000D03*
D16*
X194627500Y-58420000D03*
D17*
X197167500Y-63500000D03*
X187007500Y-63500000D03*
%TD*%
D14*
%TO.C,D52*%
X175021875Y-85850000D03*
X175021875Y-82550000D03*
%TD*%
%TO.C,D22*%
X141843125Y-47687500D03*
X141843125Y-44387500D03*
%TD*%
D15*
%TO.C,K3*%
X69590000Y-20320000D03*
X56140000Y-22860000D03*
D17*
X58420000Y-25400000D03*
X68580000Y-25400000D03*
D16*
X59690000Y-22860000D03*
D18*
X63500000Y-25400000D03*
D16*
X66040000Y-20320000D03*
%TD*%
D22*
%TO.C,D62*%
X136462500Y-96043750D03*
X139762500Y-96043750D03*
%TD*%
%TO.C,R6*%
G36*
G01*
X128063108Y-89212051D02*
X128063108Y-90124551D01*
G75*
G02*
X127819358Y-90368301I-243750J0D01*
G01*
X127331858Y-90368301D01*
G75*
G02*
X127088108Y-90124551I0J243750D01*
G01*
X127088108Y-89212051D01*
G75*
G02*
X127331858Y-88968301I243750J0D01*
G01*
X127819358Y-88968301D01*
G75*
G02*
X128063108Y-89212051I0J-243750D01*
G01*
G37*
G36*
G01*
X126188108Y-89212051D02*
X126188108Y-90124551D01*
G75*
G02*
X125944358Y-90368301I-243750J0D01*
G01*
X125456858Y-90368301D01*
G75*
G02*
X125213108Y-90124551I0J243750D01*
G01*
X125213108Y-89212051D01*
G75*
G02*
X125456858Y-88968301I243750J0D01*
G01*
X125944358Y-88968301D01*
G75*
G02*
X126188108Y-89212051I0J-243750D01*
G01*
G37*
%TD*%
D15*
%TO.C,K37*%
X160077500Y-58420000D03*
D25*
X146843750Y-60960000D03*
D16*
X156527500Y-58420000D03*
X150177500Y-60960000D03*
D18*
X153987500Y-63500000D03*
D17*
X148907500Y-63500000D03*
X159067500Y-63500000D03*
%TD*%
%TO.C,C1*%
G36*
G01*
X105828625Y-92874625D02*
X105828625Y-91962125D01*
G75*
G02*
X106072375Y-91718375I243750J0D01*
G01*
X106559875Y-91718375D01*
G75*
G02*
X106803625Y-91962125I0J-243750D01*
G01*
X106803625Y-92874625D01*
G75*
G02*
X106559875Y-93118375I-243750J0D01*
G01*
X106072375Y-93118375D01*
G75*
G02*
X105828625Y-92874625I0J243750D01*
G01*
G37*
G36*
G01*
X107703625Y-92874625D02*
X107703625Y-91962125D01*
G75*
G02*
X107947375Y-91718375I243750J0D01*
G01*
X108434875Y-91718375D01*
G75*
G02*
X108678625Y-91962125I0J-243750D01*
G01*
X108678625Y-92874625D01*
G75*
G02*
X108434875Y-93118375I-243750J0D01*
G01*
X107947375Y-93118375D01*
G75*
G02*
X107703625Y-92874625I0J243750D01*
G01*
G37*
%TD*%
D14*
%TO.C,D18*%
X65643125Y-47687500D03*
X65643125Y-44387500D03*
%TD*%
D15*
%TO.C,K60*%
X57683750Y-96520000D03*
D25*
X44450000Y-99060000D03*
D16*
X54133750Y-96520000D03*
X47783750Y-99060000D03*
D17*
X46513750Y-101600000D03*
X56673750Y-101600000D03*
D18*
X51593750Y-101600000D03*
%TD*%
D15*
%TO.C,K40*%
X217227500Y-58420000D03*
X203777500Y-60960000D03*
D18*
X211137500Y-63500000D03*
D16*
X207327500Y-60960000D03*
D17*
X216217500Y-63500000D03*
X206057500Y-63500000D03*
D16*
X213677500Y-58420000D03*
%TD*%
D14*
%TO.C,D11*%
X208359375Y-28637500D03*
X208359375Y-25337500D03*
%TD*%
D23*
%TO.C,RGB4*%
X170725000Y-104762500D03*
X170725000Y-107962500D03*
X165825000Y-107962500D03*
X165825000Y-104762500D03*
%TD*%
D22*
%TO.C,D66*%
X281718750Y-96043750D03*
X285018750Y-96043750D03*
%TD*%
%TO.C,C5*%
G36*
G01*
X127804148Y-102644000D02*
X126891648Y-102644000D01*
G75*
G02*
X126647898Y-102400250I0J243750D01*
G01*
X126647898Y-101912750D01*
G75*
G02*
X126891648Y-101669000I243750J0D01*
G01*
X127804148Y-101669000D01*
G75*
G02*
X128047898Y-101912750I0J-243750D01*
G01*
X128047898Y-102400250D01*
G75*
G02*
X127804148Y-102644000I-243750J0D01*
G01*
G37*
G36*
G01*
X127804148Y-100769000D02*
X126891648Y-100769000D01*
G75*
G02*
X126647898Y-100525250I0J243750D01*
G01*
X126647898Y-100037750D01*
G75*
G02*
X126891648Y-99794000I243750J0D01*
G01*
X127804148Y-99794000D01*
G75*
G02*
X128047898Y-100037750I0J-243750D01*
G01*
X128047898Y-100525250D01*
G75*
G02*
X127804148Y-100769000I-243750J0D01*
G01*
G37*
%TD*%
D14*
%TO.C,D34*%
X89296875Y-66737500D03*
X89296875Y-63437500D03*
%TD*%
D15*
%TO.C,K43*%
X286283750Y-58420000D03*
X272833750Y-60960000D03*
D18*
X280193750Y-63500000D03*
D17*
X285273750Y-63500000D03*
D16*
X282733750Y-58420000D03*
D17*
X275113750Y-63500000D03*
D16*
X276383750Y-60960000D03*
%TD*%
%TO.C,C12*%
G36*
G01*
X173493750Y-107897899D02*
X172581250Y-107897899D01*
G75*
G02*
X172337500Y-107654149I0J243750D01*
G01*
X172337500Y-107166649D01*
G75*
G02*
X172581250Y-106922899I243750J0D01*
G01*
X173493750Y-106922899D01*
G75*
G02*
X173737500Y-107166649I0J-243750D01*
G01*
X173737500Y-107654149D01*
G75*
G02*
X173493750Y-107897899I-243750J0D01*
G01*
G37*
G36*
G01*
X173493750Y-106022899D02*
X172581250Y-106022899D01*
G75*
G02*
X172337500Y-105779149I0J243750D01*
G01*
X172337500Y-105291649D01*
G75*
G02*
X172581250Y-105047899I243750J0D01*
G01*
X173493750Y-105047899D01*
G75*
G02*
X173737500Y-105291649I0J-243750D01*
G01*
X173737500Y-105779149D01*
G75*
G02*
X173493750Y-106022899I-243750J0D01*
G01*
G37*
%TD*%
D14*
%TO.C,D24*%
X179943125Y-47687500D03*
X179943125Y-44387500D03*
%TD*%
D15*
%TO.C,K10*%
X202940000Y-20320000D03*
X189490000Y-22860000D03*
D17*
X201930000Y-25400000D03*
D16*
X199390000Y-20320000D03*
D17*
X191770000Y-25400000D03*
D16*
X193040000Y-22860000D03*
D18*
X196850000Y-25400000D03*
%TD*%
D15*
%TO.C,K46*%
X74352500Y-77470000D03*
X60902500Y-80010000D03*
D18*
X68262500Y-82550000D03*
D17*
X63182500Y-82550000D03*
X73342500Y-82550000D03*
D16*
X64452500Y-80010000D03*
X70802500Y-77470000D03*
%TD*%
D22*
%TO.C,D60*%
X41212500Y-96113633D03*
X44512500Y-96113633D03*
%TD*%
D15*
%TO.C,K56*%
X271996250Y-77470000D03*
X258546250Y-80010000D03*
D17*
X260826250Y-82550000D03*
D16*
X268446250Y-77470000D03*
D17*
X270986250Y-82550000D03*
D16*
X262096250Y-80010000D03*
D18*
X265906250Y-82550000D03*
%TD*%
%TO.C,C13*%
G36*
G01*
X185400000Y-107787500D02*
X184487500Y-107787500D01*
G75*
G02*
X184243750Y-107543750I0J243750D01*
G01*
X184243750Y-107056250D01*
G75*
G02*
X184487500Y-106812500I243750J0D01*
G01*
X185400000Y-106812500D01*
G75*
G02*
X185643750Y-107056250I0J-243750D01*
G01*
X185643750Y-107543750D01*
G75*
G02*
X185400000Y-107787500I-243750J0D01*
G01*
G37*
G36*
G01*
X185400000Y-105912500D02*
X184487500Y-105912500D01*
G75*
G02*
X184243750Y-105668750I0J243750D01*
G01*
X184243750Y-105181250D01*
G75*
G02*
X184487500Y-104937500I243750J0D01*
G01*
X185400000Y-104937500D01*
G75*
G02*
X185643750Y-105181250I0J-243750D01*
G01*
X185643750Y-105668750D01*
G75*
G02*
X185400000Y-105912500I-243750J0D01*
G01*
G37*
%TD*%
D14*
%TO.C,D51*%
X155971875Y-85850000D03*
X155971875Y-82550000D03*
%TD*%
%TO.C,C4*%
G36*
G01*
X122273000Y-106374250D02*
X122273000Y-105461750D01*
G75*
G02*
X122516750Y-105218000I243750J0D01*
G01*
X123004250Y-105218000D01*
G75*
G02*
X123248000Y-105461750I0J-243750D01*
G01*
X123248000Y-106374250D01*
G75*
G02*
X123004250Y-106618000I-243750J0D01*
G01*
X122516750Y-106618000D01*
G75*
G02*
X122273000Y-106374250I0J243750D01*
G01*
G37*
G36*
G01*
X124148000Y-106374250D02*
X124148000Y-105461750D01*
G75*
G02*
X124391750Y-105218000I243750J0D01*
G01*
X124879250Y-105218000D01*
G75*
G02*
X125123000Y-105461750I0J-243750D01*
G01*
X125123000Y-106374250D01*
G75*
G02*
X124879250Y-106618000I-243750J0D01*
G01*
X124391750Y-106618000D01*
G75*
G02*
X124148000Y-106374250I0J243750D01*
G01*
G37*
%TD*%
D15*
%TO.C,K13*%
X260090000Y-20320000D03*
X246640000Y-22860000D03*
D17*
X248920000Y-25400000D03*
D16*
X250190000Y-22860000D03*
D17*
X259080000Y-25400000D03*
D16*
X256540000Y-20320000D03*
D18*
X254000000Y-25400000D03*
%TD*%
D14*
%TO.C,D41*%
X222646875Y-66737500D03*
X222646875Y-63437500D03*
%TD*%
%TO.C,D54*%
X213121875Y-85850000D03*
X213121875Y-82550000D03*
%TD*%
D15*
%TO.C,K34*%
X102927500Y-58420000D03*
X89477500Y-60960000D03*
D16*
X99377500Y-58420000D03*
X93027500Y-60960000D03*
D17*
X91757500Y-63500000D03*
D18*
X96837500Y-63500000D03*
D17*
X101917500Y-63500000D03*
%TD*%
D15*
%TO.C,K62*%
X152933750Y-96520000D03*
X139483750Y-99060000D03*
D18*
X146843750Y-101600000D03*
D16*
X143033750Y-99060000D03*
D17*
X151923750Y-101600000D03*
X141763750Y-101600000D03*
D16*
X149383750Y-96520000D03*
%TD*%
D15*
%TO.C,K35*%
X121977500Y-58420000D03*
X108527500Y-60960000D03*
D16*
X118427500Y-58420000D03*
X112077500Y-60960000D03*
D17*
X110807500Y-63500000D03*
D18*
X115887500Y-63500000D03*
D17*
X120967500Y-63500000D03*
%TD*%
D14*
%TO.C,D10*%
X189309375Y-28637500D03*
X189309375Y-25337500D03*
%TD*%
%TO.C,C11*%
G36*
G01*
X152062500Y-107783359D02*
X151150000Y-107783359D01*
G75*
G02*
X150906250Y-107539609I0J243750D01*
G01*
X150906250Y-107052109D01*
G75*
G02*
X151150000Y-106808359I243750J0D01*
G01*
X152062500Y-106808359D01*
G75*
G02*
X152306250Y-107052109I0J-243750D01*
G01*
X152306250Y-107539609D01*
G75*
G02*
X152062500Y-107783359I-243750J0D01*
G01*
G37*
G36*
G01*
X152062500Y-105908359D02*
X151150000Y-105908359D01*
G75*
G02*
X150906250Y-105664609I0J243750D01*
G01*
X150906250Y-105177109D01*
G75*
G02*
X151150000Y-104933359I243750J0D01*
G01*
X152062500Y-104933359D01*
G75*
G02*
X152306250Y-105177109I0J-243750D01*
G01*
X152306250Y-105664609D01*
G75*
G02*
X152062500Y-105908359I-243750J0D01*
G01*
G37*
%TD*%
%TO.C,D55*%
X232171875Y-85850000D03*
X232171875Y-82550000D03*
%TD*%
D15*
%TO.C,K65*%
X279140000Y-96520000D03*
X265690000Y-99060000D03*
D16*
X275590000Y-96520000D03*
D18*
X273050000Y-101600000D03*
D16*
X269240000Y-99060000D03*
D17*
X278130000Y-101600000D03*
X267970000Y-101600000D03*
%TD*%
D15*
%TO.C,K63*%
X226752500Y-96520000D03*
X213302500Y-99060000D03*
D16*
X216852500Y-99060000D03*
D17*
X215582500Y-101600000D03*
D18*
X220662500Y-101600000D03*
D16*
X223202500Y-96520000D03*
D17*
X225742500Y-101600000D03*
%TD*%
D15*
%TO.C,K44*%
X317240000Y-58420000D03*
X303790000Y-60960000D03*
D17*
X306070000Y-63500000D03*
X316230000Y-63500000D03*
D16*
X313690000Y-58420000D03*
D18*
X311150000Y-63500000D03*
D16*
X307340000Y-60960000D03*
%TD*%
D14*
%TO.C,D37*%
X147637500Y-69118750D03*
X147637500Y-65818750D03*
%TD*%
%TO.C,D44*%
X303609375Y-66737500D03*
X303609375Y-63437500D03*
%TD*%
%TO.C,D35*%
X108346875Y-66675000D03*
X108346875Y-63375000D03*
%TD*%
%TO.C,D4*%
X75009375Y-28637500D03*
X75009375Y-25337500D03*
%TD*%
D22*
%TO.C,D67*%
X300768750Y-96043750D03*
X304068750Y-96043750D03*
%TD*%
%TO.C,C8*%
G36*
G01*
X40612000Y-20649250D02*
X40612000Y-19736750D01*
G75*
G02*
X40855750Y-19493000I243750J0D01*
G01*
X41343250Y-19493000D01*
G75*
G02*
X41587000Y-19736750I0J-243750D01*
G01*
X41587000Y-20649250D01*
G75*
G02*
X41343250Y-20893000I-243750J0D01*
G01*
X40855750Y-20893000D01*
G75*
G02*
X40612000Y-20649250I0J243750D01*
G01*
G37*
G36*
G01*
X42487000Y-20649250D02*
X42487000Y-19736750D01*
G75*
G02*
X42730750Y-19493000I243750J0D01*
G01*
X43218250Y-19493000D01*
G75*
G02*
X43462000Y-19736750I0J-243750D01*
G01*
X43462000Y-20649250D01*
G75*
G02*
X43218250Y-20893000I-243750J0D01*
G01*
X42730750Y-20893000D01*
G75*
G02*
X42487000Y-20649250I0J243750D01*
G01*
G37*
%TD*%
D15*
%TO.C,K16*%
X36252500Y-39370000D03*
X22802500Y-41910000D03*
D16*
X26352500Y-41910000D03*
D17*
X35242500Y-44450000D03*
D16*
X32702500Y-39370000D03*
D18*
X30162500Y-44450000D03*
D17*
X25082500Y-44450000D03*
%TD*%
D14*
%TO.C,D31*%
X25003125Y-66737500D03*
X25003125Y-63437500D03*
%TD*%
D23*
%TO.C,RGB1*%
X63568750Y-104762500D03*
X63568750Y-107962500D03*
X58668750Y-107962500D03*
X58668750Y-104762500D03*
%TD*%
D14*
%TO.C,D17*%
X46593125Y-47687500D03*
X46593125Y-44387500D03*
%TD*%
D28*
%TO.C,U2*%
X35644000Y-31181000D03*
X35644000Y-32131000D03*
X35644000Y-33081000D03*
X33444000Y-33081000D03*
X33444000Y-32131000D03*
X33444000Y-31181000D03*
%TD*%
D14*
%TO.C,D33*%
X70246875Y-66800000D03*
X70246875Y-63500000D03*
%TD*%
D15*
%TO.C,K67*%
X317240000Y-96520000D03*
X303790000Y-99060000D03*
D17*
X306070000Y-101600000D03*
X316230000Y-101600000D03*
D16*
X307340000Y-99060000D03*
X313690000Y-96520000D03*
D18*
X311150000Y-101600000D03*
%TD*%
D22*
%TO.C,D61*%
X65025000Y-96043750D03*
X68325000Y-96043750D03*
%TD*%
%TO.C,C7*%
G36*
G01*
X114963000Y-89060826D02*
X114963000Y-89973326D01*
G75*
G02*
X114719250Y-90217076I-243750J0D01*
G01*
X114231750Y-90217076D01*
G75*
G02*
X113988000Y-89973326I0J243750D01*
G01*
X113988000Y-89060826D01*
G75*
G02*
X114231750Y-88817076I243750J0D01*
G01*
X114719250Y-88817076D01*
G75*
G02*
X114963000Y-89060826I0J-243750D01*
G01*
G37*
G36*
G01*
X113088000Y-89060826D02*
X113088000Y-89973326D01*
G75*
G02*
X112844250Y-90217076I-243750J0D01*
G01*
X112356750Y-90217076D01*
G75*
G02*
X112113000Y-89973326I0J243750D01*
G01*
X112113000Y-89060826D01*
G75*
G02*
X112356750Y-88817076I243750J0D01*
G01*
X112844250Y-88817076D01*
G75*
G02*
X113088000Y-89060826I0J-243750D01*
G01*
G37*
%TD*%
D29*
%TO.C,U1*%
X123056250Y-103187500D03*
X122256250Y-103187500D03*
X121456250Y-103187500D03*
X120656250Y-103187500D03*
X119856250Y-103187500D03*
X119056250Y-103187500D03*
X118256250Y-103187500D03*
X117456250Y-103187500D03*
X116656250Y-103187500D03*
X115856250Y-103187500D03*
X115056250Y-103187500D03*
D30*
X113356250Y-101487500D03*
X113356250Y-100687500D03*
X113356250Y-99887500D03*
X113356250Y-99087500D03*
X113356250Y-98287500D03*
X113356250Y-97487500D03*
X113356250Y-96687500D03*
X113356250Y-95887500D03*
X113356250Y-95087500D03*
X113356250Y-94287500D03*
X113356250Y-93487500D03*
D29*
X115056250Y-91787500D03*
X115856250Y-91787500D03*
X116656250Y-91787500D03*
X117456250Y-91787500D03*
X118256250Y-91787500D03*
X119056250Y-91787500D03*
X119856250Y-91787500D03*
X120656250Y-91787500D03*
X121456250Y-91787500D03*
X122256250Y-91787500D03*
X123056250Y-91787500D03*
D30*
X124756250Y-93487500D03*
X124756250Y-94287500D03*
X124756250Y-95087500D03*
X124756250Y-95887500D03*
X124756250Y-96687500D03*
X124756250Y-97487500D03*
X124756250Y-98287500D03*
X124756250Y-99087500D03*
X124756250Y-99887500D03*
X124756250Y-100687500D03*
X124756250Y-101487500D03*
%TD*%
D14*
%TO.C,D9*%
X170259375Y-28637500D03*
X170259375Y-25337500D03*
%TD*%
%TO.C,C14*%
G36*
G01*
X255206437Y-107787500D02*
X254293937Y-107787500D01*
G75*
G02*
X254050187Y-107543750I0J243750D01*
G01*
X254050187Y-107056250D01*
G75*
G02*
X254293937Y-106812500I243750J0D01*
G01*
X255206437Y-106812500D01*
G75*
G02*
X255450187Y-107056250I0J-243750D01*
G01*
X255450187Y-107543750D01*
G75*
G02*
X255206437Y-107787500I-243750J0D01*
G01*
G37*
G36*
G01*
X255206437Y-105912500D02*
X254293937Y-105912500D01*
G75*
G02*
X254050187Y-105668750I0J243750D01*
G01*
X254050187Y-105181250D01*
G75*
G02*
X254293937Y-104937500I243750J0D01*
G01*
X255206437Y-104937500D01*
G75*
G02*
X255450187Y-105181250I0J-243750D01*
G01*
X255450187Y-105668750D01*
G75*
G02*
X255206437Y-105912500I-243750J0D01*
G01*
G37*
%TD*%
D22*
%TO.C,D64*%
X238856250Y-96043750D03*
X242156250Y-96043750D03*
%TD*%
D15*
%TO.C,K57*%
X298190000Y-77470000D03*
X284740000Y-80010000D03*
D16*
X294640000Y-77470000D03*
D18*
X292100000Y-82550000D03*
D16*
X288290000Y-80010000D03*
D17*
X287020000Y-82550000D03*
X297180000Y-82550000D03*
%TD*%
%TO.C,R1*%
G36*
G01*
X28118750Y-21593750D02*
X29031250Y-21593750D01*
G75*
G02*
X29275000Y-21837500I0J-243750D01*
G01*
X29275000Y-22325000D01*
G75*
G02*
X29031250Y-22568750I-243750J0D01*
G01*
X28118750Y-22568750D01*
G75*
G02*
X27875000Y-22325000I0J243750D01*
G01*
X27875000Y-21837500D01*
G75*
G02*
X28118750Y-21593750I243750J0D01*
G01*
G37*
G36*
G01*
X28118750Y-23468750D02*
X29031250Y-23468750D01*
G75*
G02*
X29275000Y-23712500I0J-243750D01*
G01*
X29275000Y-24200000D01*
G75*
G02*
X29031250Y-24443750I-243750J0D01*
G01*
X28118750Y-24443750D01*
G75*
G02*
X27875000Y-24200000I0J243750D01*
G01*
X27875000Y-23712500D01*
G75*
G02*
X28118750Y-23468750I243750J0D01*
G01*
G37*
%TD*%
D14*
%TO.C,D8*%
X151209375Y-28637500D03*
X151209375Y-25337500D03*
%TD*%
%TO.C,R2*%
G36*
G01*
X40818750Y-21593750D02*
X41731250Y-21593750D01*
G75*
G02*
X41975000Y-21837500I0J-243750D01*
G01*
X41975000Y-22325000D01*
G75*
G02*
X41731250Y-22568750I-243750J0D01*
G01*
X40818750Y-22568750D01*
G75*
G02*
X40575000Y-22325000I0J243750D01*
G01*
X40575000Y-21837500D01*
G75*
G02*
X40818750Y-21593750I243750J0D01*
G01*
G37*
G36*
G01*
X40818750Y-23468750D02*
X41731250Y-23468750D01*
G75*
G02*
X41975000Y-23712500I0J-243750D01*
G01*
X41975000Y-24200000D01*
G75*
G02*
X41731250Y-24443750I-243750J0D01*
G01*
X40818750Y-24443750D01*
G75*
G02*
X40575000Y-24200000I0J243750D01*
G01*
X40575000Y-23712500D01*
G75*
G02*
X40818750Y-23468750I243750J0D01*
G01*
G37*
%TD*%
D15*
%TO.C,K66*%
X298190000Y-96520000D03*
D25*
X284956250Y-99060000D03*
D16*
X294640000Y-96520000D03*
D18*
X292100000Y-101600000D03*
D16*
X288290000Y-99060000D03*
D17*
X287020000Y-101600000D03*
X297180000Y-101600000D03*
%TD*%
D15*
%TO.C,K11*%
X221990000Y-20320000D03*
X208540000Y-22860000D03*
D17*
X210820000Y-25400000D03*
D16*
X212090000Y-22860000D03*
D18*
X215900000Y-25400000D03*
D17*
X220980000Y-25400000D03*
D16*
X218440000Y-20320000D03*
%TD*%
D15*
%TO.C,K8*%
X164840000Y-20320000D03*
X151390000Y-22860000D03*
D18*
X158750000Y-25400000D03*
D16*
X154940000Y-22860000D03*
D17*
X163830000Y-25400000D03*
D16*
X161290000Y-20320000D03*
D17*
X153670000Y-25400000D03*
%TD*%
D15*
%TO.C,K7*%
X145790000Y-20320000D03*
X132340000Y-22860000D03*
D16*
X142240000Y-20320000D03*
D17*
X134620000Y-25400000D03*
D18*
X139700000Y-25400000D03*
D16*
X135890000Y-22860000D03*
D17*
X144780000Y-25400000D03*
%TD*%
D15*
%TO.C,K21*%
X136265000Y-39370000D03*
X122815000Y-41910000D03*
D16*
X132715000Y-39370000D03*
D17*
X125095000Y-44450000D03*
X135255000Y-44450000D03*
D18*
X130175000Y-44450000D03*
D16*
X126365000Y-41910000D03*
%TD*%
D15*
%TO.C,K12*%
X241040000Y-20320000D03*
X227590000Y-22860000D03*
D17*
X240030000Y-25400000D03*
D16*
X231140000Y-22860000D03*
D17*
X229870000Y-25400000D03*
D18*
X234950000Y-25400000D03*
D16*
X237490000Y-20320000D03*
%TD*%
M02*
