M48
; DRILL file {KiCad (5.99.0-2809-gaceed2b0a4)} date 08/26/20 23:21:36
; FORMAT={-:-/ absolute / inch / decimal}
; #@! TF.CreationDate,2020-08-26T23:21:36-04:00
; #@! TF.GenerationSoftware,Kicad,Pcbnew,(5.99.0-2809-gaceed2b0a4)
; #@! TF.FileFunction,Plated,1,2,PTH
FMAT,2
INCH
T1C0.0157
T2C0.0236
T3C0.0394
T4C0.0906
T5C0.0984
%
G90
G05
T1
X1.1969Y-1.185
X1.245Y-1.275
X1.295Y-1.02
X1.3031Y-0.9764
X1.355Y-3.725
X1.45Y-1.635
X1.4567Y-0.975
X1.465Y-1.02
X1.475Y-1.275
X1.54Y-2.215
X1.73Y-2.965
X1.77Y-3.465
X1.94Y-1.265
X2.1585Y-3.345
X2.19Y-3.345
X2.19Y-3.49
X2.23Y-3.49
X2.295Y-3.725
X2.385Y-1.47
X2.57Y-2.215
X2.68Y-4.24
X2.76Y-0.88
X2.95Y-2.965
X3.0Y-3.44
X3.13Y-1.47
X3.16Y-1.845
X3.2Y-1.845
X3.215Y-4.2397
X3.23Y-3.725
X3.245Y-1.845
X3.3125Y-4.1875
X3.3198Y-2.215
X3.35Y-4.06
X3.375Y-4.25
X3.51Y-0.88
X3.66Y-4.1607
X3.66Y-4.225
X3.695Y-2.97
X3.705Y-1.17
X3.725Y-3.415
X3.77Y-4.095
X3.82Y-4.0354
X3.8824Y-1.47
X4.0094Y-4.0976
X4.07Y-2.215
X4.09Y-1.93
X4.26Y-0.88
X4.275Y-2.675
X4.41Y-3.415
X4.41Y-3.9306
X4.41Y-4.2
X4.435Y-4.225
X4.45Y-2.965
X4.46Y-4.25
X4.515Y-4.255
X4.545Y-4.225
X4.555Y-3.435
X4.5613Y-3.5587
X4.57Y-4.2
X4.595Y-3.435
X4.63Y-1.47
X4.63Y-3.435
X4.65Y-4.115
X4.82Y-2.215
X4.845Y-4.115
X4.924Y-4.079
X4.93Y-3.605
X5.01Y-0.88
X5.07Y-4.025
X5.13Y-3.405
X5.195Y-2.965
X5.38Y-1.47
X5.435Y-3.785
X5.57Y-2.215
X5.625Y-4.1629
X5.6375Y-4.215
X5.6875Y-4.1875
X5.75Y-4.25
X5.76Y-0.88
X5.78Y-4.13
X5.885Y-3.405
X5.95Y-2.965
X6.045Y-3.725
X6.135Y-1.47
X6.32Y-2.215
X6.51Y-0.88
X6.5312Y-4.1875
X6.635Y-3.415
X6.665Y-4.25
X6.695Y-2.965
X6.885Y-1.47
X7.07Y-2.215
X7.2592Y-0.8819
X7.375Y-4.1875
X7.38Y-3.425
X7.4375Y-4.25
X7.445Y-2.965
X7.63Y-1.47
X7.825Y-2.215
X8.0112Y-0.88
X8.135Y-3.435
X8.2Y-2.965
X8.38Y-1.47
X8.57Y-2.215
X8.76Y-0.878
X8.905Y-3.435
X8.945Y-2.965
X8.945Y-3.725
X9.135Y-1.47
X9.325Y-2.215
X9.51Y-0.88
X9.635Y-3.45
X9.7Y-2.965
X9.75Y-4.1875
X9.8125Y-4.25
X9.885Y-1.47
X10.07Y-2.215
X10.07Y-3.725
X10.26Y-0.8819
X10.635Y-1.47
X10.66Y-3.45
X10.725Y-2.965
X10.75Y-4.1875
X10.8125Y-4.25
X10.97Y-3.45
X11.01Y-3.725
X11.29Y-2.215
X11.3852Y-0.88
X11.575Y-1.47
X11.725Y-3.45
X11.76Y-2.965
X11.76Y-3.725
X12.35Y-3.455
X12.49Y-0.88
X12.49Y-1.47
X12.49Y-2.215
X12.49Y-2.965
X12.51Y-3.725
T3
X3.535Y-3.785
X3.535Y-3.885
X3.535Y-3.985
X3.635Y-3.785
X3.635Y-3.885
X3.635Y-3.985
T4
X5.6875Y-2.5
X11.125Y-4.0
T2
G00X1.2049Y-0.7131
M15
G01X1.2049Y-0.7367
M16
G05
G00X1.2049Y-0.8678
M15
G01X1.2049Y-0.9111
M16
G05
G00X1.5451Y-0.7131
M15
G01X1.5451Y-0.7367
M16
G05
G00X1.5451Y-0.8678
M15
G01X1.5451Y-0.9111
M16
G05
T5
G00X10.8337Y-1.7502
M15
G01X10.9163Y-1.7502
M16
G05
G00X1.5524Y-4.0
M15
G01X1.6351Y-4.0
M16
G05
G00X7.9587Y-4.0
M15
G01X8.0413Y-4.0
M16
G05
G00X1.5524Y-1.75
M15
G01X1.6351Y-1.75
M16
G05
T0
M30
